ModelForces																												
version=1																												
nRows=38																												
nColumns=29																												
inDegrees=no																												
																												
This file contains the forces exerted on a model during a simulation.																												
																												
"A force is a generalized force, meaning that it can be either a force (N) or a torque (Nm)."																												
																												
"Units are S.I. units (second, meters, Newtons, ...)"																												
"If the header above contains a line with 'inDegrees', this indicates whether rotational values are in degrees (yes) or radians (no)."																												
																												
endheader																												
time	gastroc	glut_max	iliopsoas	recfem	hamstrings	soleus	tibant	vasti	ankle_angle_LimitForce	PotentialEnergy	knee_angle_LimitForce	PotentialEnergy	hip_flexion_LimitForce	PotentialEnergy	patellofemoral_knee_angle_con_mobility_F0	patellofemoral_knee_angle_con_mobility_F1	seatConstraint_ground_Fx	seatConstraint_ground_Fy	seatConstraint_ground_Fz	seatConstraint_ground_Mx	seatConstraint_ground_My	seatConstraint_ground_Mz	seatConstraint_femur_r_Fx	seatConstraint_femur_r_Fy	seatConstraint_femur_r_Fz	seatConstraint_femur_r_Mx	seatConstraint_femur_r_My	seatConstraint_femur_r_Mz
0	49.56313221	228.0024983	744.8170191	22.67463153	145.287187	1180.727927	548.2847361	6428.805053	0	0	0	0	0	0	-88.78931415	88.78931415	195.3857887	258.9500826	0.00000877	1.98214749	-1.49558616	-147.2417295	-195.3857887	-258.9500826	-0.00000877	0	0	0
0.02259646	49.56312321	228.3148141	798.2179367	22.40328901	191.2938421	1180.727876	545.6626145	6414.13314	0	0	0	0	0	0	-88.58383075	88.58383075	193.3624471	263.837373	0.00000909	2.0195576	-1.48009836	-147.1003128	-193.3624471	-263.837373	-0.00000909	0	0	0
0.02385611	49.56312329	228.3422344	802.63161	22.385905	149.1605704	1180.727908	545.2649552	6411.958701	0	0	0	0	0	0	-88.55368431	88.55368431	200.3429683	264.0370735	0.00000891	2.02108612	-1.53353105	-150.7064064	-200.3429683	-264.0370735	-0.00000891	0	0	0
0.02590753	49.56312337	228.3899005	809.8915014	22.35656476	147.0368506	1180.727923	544.5494216	6408.067834	0	0	0	0	0	0	-88.49976505	88.49976505	201.372785	264.7435515	0.00000892	2.02649389	-1.54141382	-151.3621415	-201.372785	-264.7435515	-0.00000892	0	0	0
0.0361646	49.5631235	228.675726	847.1314523	22.19604209	81.25890548	1180.728365	539.7078966	6382.291805	0	0	0	0	0	0	-88.14301865	88.14301865	215.2000809	268.3216323	0.00000875	2.05388235	-1.6472554	-159.0869023	-215.2000809	-268.3216323	-0.00000875	0	0	0
0.03740723	49.56312349	228.7166315	851.6693106	22.17568778	124.9554277	1180.728094	538.9808328	6378.486571	0	0	0	0	0	0	-88.09039826	88.09039826	208.8448652	269.072273	0.00000896	2.05962827	-1.59860912	-155.9742618	-208.8448652	-269.072273	-0.00000896	0	0	0
0.0406132	49.56312347	228.826745	863.4323706	22.121417	143.3897175	1180.727923	536.9701462	6368.035361	0	0	0	0	0	0	-87.94589649	87.94589649	207.1224032	270.5200533	0.00000908	2.07071042	-1.58542445	-155.3580656	-207.1224032	-270.5200533	-0.00000908	0	0	0
0.04792916	49.56312347	229.1090815	890.2787629	21.99354323	157.7094899	1180.728	531.6862421	6341.002881	0	0	0	0	0	0	-87.57230487	87.57230487	207.5263204	273.8072099	0.00000925	2.09587217	-1.58851622	-156.1654079	-207.5263204	-273.8072099	-0.00000925	0	0	0
0.05045119	49.56312347	229.2166502	899.5142441	21.94761289	149.6379439	1180.727936	529.6533332	6330.745674	0	0	0	0	0	0	-87.43058406	87.43058406	209.6923376	274.9041978	0.00000925	2.1042691	-1.60509608	-157.4735297	-209.6923376	-274.9041978	-0.00000925	0	0	0
0.05916313	49.56312346	229.6311746	931.2258985	21.78310466	78.42295827	1180.727526	521.8743124	6292.102157	0	0	0	0	0	0	-86.89677272	86.89677272	223.9142599	278.546302	0.00000907	2.13214763	-1.71395834	-165.4117902	-223.9142599	-278.546302	-0.00000907	0	0	0
0.06021723	49.56312346	229.6866382	935.0140286	21.76289592	122.2813459	1180.72775	520.8589422	6287.121488	0	0	0	0	0	0	-86.82798445	86.82798445	217.4847616	279.3017523	0.00000928	2.13793036	-1.66474347	-162.2620432	-217.4847616	-279.3017523	-0.00000928	0	0	0
0.06342244	49.56312346	229.8602842	946.5508968	21.69955841	144.3805238	1180.727932	517.6806457	6271.615834	0	0	0	0	0	0	-86.61382938	86.61382938	215.2208508	280.963139	0.00000943	2.15064758	-1.64741426	-161.4080098	-215.2208508	-280.963139	-0.00000943	0	0	0
0.07026272	49.56312346	230.2624799	971.0168601	21.56045846	157.1110323	1180.727875	510.4713617	6236.882115	0	0	0	0	0	0	-86.13414484	86.13414484	215.7513271	284.3539808	0.0000096	2.17660299	-1.65147478	-162.2990205	-215.7513271	-284.3539808	-0.0000096	0	0	0
0.074612	49.56312346	230.5413879	986.4489896	21.46862169	147.9651674	1180.727965	505.6121725	6213.781065	0	0	0	0	0	0	-85.81512056	85.81512056	218.7729544	286.4280422	0.00000963	2.19247899	-1.67460393	-164.223251	-218.7729544	-286.4280422	-0.00000963	0	0	0
0.08264426	49.56312346	231.1066744	1014.627886	21.29403192	157.9553343	1180.726838	496.1419487	6169.39718	0	0	0	0	0	0	-85.20220638	85.20220638	220.2007367	290.4462248	0.00000981	2.22323641	-1.68553291	-165.6877716	-220.2007367	-290.4462248	-0.00000981	0	0	0
0.08545139	49.56312346	231.3196893	1024.38903	21.23065818	151.9759258	1180.727853	492.6947334	6153.434553	0	0	0	0	0	0	-84.98176448	84.98176448	222.1738351	291.7933839	0.00000983	2.2335483	-1.70063606	-166.9429652	-222.1738351	-291.7933839	-0.00000983	0	0	0
0.0942627	49.56312346	232.0428595	1054.690581	21.02585458	110.5709042	1180.731563	481.4657671	6102.091171	0	0	0	0	0	0	-84.27270578	84.27270578	231.8842979	295.8523456	0.00000979	2.26461775	-1.77496516	-172.6504121	-231.8842979	-295.8523456	-0.00000979	0	0	0
0.09544782	49.56312346	232.1470561	1058.70559	20.99777606	134.6951655	1180.729376	479.9117769	6095.060462	0	0	0	0	0	0	-84.17561033	84.17561033	228.5966751	296.5943349	0.00000992	2.2702974	-1.74979991	-171.1048501	-228.5966751	-296.5943349	-0.00000992	0	0	0
0.10021215	49.56312346	232.5806073	1074.73576	20.88233123	155.143438	1180.726036	473.5688398	6066.541343	0	0	0	0	0	0	-83.78173497	83.78173497	227.2272766	299.0553631	0.00001009	2.28913552	-1.73931777	-170.8543894	-227.2272766	-299.0553631	-0.00001009	0	0	0
0.1074807	49.56312346	233.2907827	1089.940394	20.70072845	120.3846794	1194.978167	463.9654824	6023.57612	0	0	0	0	0	0	-83.18824228	83.18824228	235.6160033	301.2758678	0.00000998	2.3061324	-1.80352961	-175.5499321	-235.6160033	-301.2758678	-0.00000998	0	0	0
0.10874255	49.56312346	233.4206347	1091.195415	20.6689102	139.5714164	1190.39201	462.3979347	6016.504007	0	0	0	0	0	0	-83.09052696	83.09052696	232.4866191	301.8777146	0.0000101	2.31073932	-1.7795756	-174.0596739	-232.4866191	-301.8777146	-0.0000101	0	0	0
0.11505182	49.56312346	234.3930033	1093.660529	20.50815054	208.8737652	1170.202005	455.3365072	5984.02348	0	0	0	0	0	0	-82.6415471	82.6415471	220.8025806	304.2072845	0.00001054	2.32857132	-1.69013961	-168.5106405	-220.8025806	-304.2072845	-0.00001054	0	0	0
0.11578077	49.56312346	234.5535278	1093.639129	20.48906081	167.5954562	1181.093457	454.616663	5980.623456	0	0	0	0	0	0	-82.59451799	82.59451799	228.0711258	303.7624015	0.00001032	2.32516584	-1.745777	-172.1462091	-228.0711258	-303.7624015	-0.00001032	0	0	0
0.11731485	49.56312346	234.9108252	1093.405104	20.44914841	158.7330283	1192.642298	453.1729547	5973.727659	0	0	0	0	0	0	-82.4991193	82.4991193	230.4165978	303.6443752	0.00001025	2.32426237	-1.76373051	-173.3240298	-230.4165978	-303.6443752	-0.00001025	0	0	0
0.12314278	49.56312346	236.4659561	1090.860556	20.29773002	143.5640021	1211.433758	448.6091854	5950.864751	0	0	0	0	0	0	-82.18256965	82.18256965	234.3043063	303.5980689	0.00001014	2.32390786	-1.79348914	-175.3036045	-234.3043063	-303.5980689	-0.00001014	0	0	0
0.12837946	49.56312346	238.1665285	1087.427442	20.16162814	161.8538969	1216.985298	446.2772518	5934.920456	0	0	0	0	0	0	-81.96140176	81.96140176	231.7959597	303.7516872	0.00001022	2.32508377	-1.7742889	-174.0490006	-231.7959597	-303.7516872	-0.00001022	0	0	0
0.13530671	49.56312346	240.6025239	1082.285356	19.9798456	55.90540635	1229.2193	446.6941549	5921.03514	0	0	0	0	0	0	-81.76794378	81.76794378	248.615153	302.3896763	0.0000097	2.31465794	-1.90303213	-182.4008132	-248.615153	-302.3896763	-0.0000097	0	0	0
0.13621315	49.56312346	240.9312606	1081.527512	19.95632178	121.3251416	1230.783112	447.0414118	5919.879931	0	0	0	0	0	0	-81.75173579	81.75173579	238.6197693	302.8512079	0.00000999	2.3181909	-1.82652204	-177.3738777	-238.6197693	-302.8512079	-0.00000999	0	0	0
0.13854497	49.56312346	241.782712	1079.592937	19.89497332	150.2199357	1234.832864	448.2206612	5917.615376	0	0	0	0	0	0	-81.71975837	81.71975837	234.3017179	302.8228755	0.0000101	2.31797409	-1.79346934	-175.1605989	-234.3017179	-302.8228755	-0.0000101	0	0	0
0.14451467	49.56312346	244.0016739	1074.408266	19.73828923	172.094309	1245.275863	452.9190114	5916.274379	0	0	0	0	0	0	-81.69920362	81.69920362	231.1819023	302.0917341	0.00001015	2.31237756	-1.76958858	-173.4316037	-231.1819023	-302.0917341	-0.00001015	0	0	0
0.14658506	49.56312346	244.7829712	1072.537894	19.68368401	162.9630464	1248.910843	455.0366039	5917.205913	0	0	0	0	0	0	-81.71128381	81.71128381	232.6442562	301.6176197	0.00001008	2.3087484	-1.78078224	-174.0927465	-232.6442562	-301.6176197	-0.00001008	0	0	0
0.1526692	49.56312346	247.112174	1066.811148	19.52395309	148.5466345	1259.6155	462.4265503	5923.603419	0	0	0	0	0	0	-81.79714264	81.79714264	235.0005948	300.1338865	0.00000994	2.29739104	-1.79881895	-175.0265139	-235.0005948	-300.1338865	-0.00000994	0	0	0
0.15595499	49.56312346	248.3904357	1063.580715	19.43779265	160.9569202	1265.409913	467.0165979	5929.063726	0	0	0	0	0	0	-81.87109842	81.87109842	233.1725484	299.4133941	0.00000995	2.29187601	-1.7848261	-173.9600307	-233.1725484	-299.4133941	-0.00000995	0	0	0
0.16463401	49.56312346	251.8330182	1054.703643	19.21164213	215.2817502	1280.75577	480.6262515	5948.907616	0	0	0	0	0	0	-82.14103881	82.14103881	225.0704799	297.4494194	0.00001006	2.27684275	-1.72280849	-169.4579608	-225.0704799	-297.4494194	-0.00001006	0	0	0
0.16554484	49.56312346	252.1994549	1053.762394	19.18720536	170.224936	1282.370008	482.1541623	5951.373367	0	0	0	0	0	0	-82.17463021	82.17463021	231.9530799	296.6992143	0.00000984	2.27110016	-1.77549165	-172.8403668	-231.9530799	-296.6992143	-0.00000984	0	0	0
0.16705593	49.56312346	252.8102241	1052.17221	19.14705035	166.9408298	1285.049387	484.7232429	5955.600968	0	0	0	0	0	0	-82.23224703	82.23224703	232.4853774	296.1812472	0.00000979	2.26713534	-1.77956615	-173.0178964	-232.4853774	-296.1812472	-0.00000979	0	0	0
0.17461135	49.56312346	255.9077389	1044.057064	18.94817123	107.9728046	1298.47169	498.1122308	5978.960373	0	0	0	0	0	0	-82.55091534	82.55091534	241.6122898	292.9709037	0.00000938	2.24256144	-1.84942851	-177.0983261	-241.6122898	-292.9709037	-0.00000938	0	0	0
0.17566798	49.56312346	256.3474954	1042.87698	18.92048973	143.6693115	1300.352384	500.0456215	5982.480833	0	0	0	0	0	0	-82.59897217	82.59897217	236.2155747	292.9838017	0.00000952	2.24266024	-1.80811913	-174.3409921	-236.2155747	-292.9838017	-0.00000952	0	0	0
